<svg xmlns="http://www.w3.org/2000/svg" xmlns:xlink="http://www.w3.org/1999/xlink" version="1.1" id="Слой_1" x="0px" y="0px" width="122px" height="212px" viewBox="0 0 122 212" enable-background="new 0 0 122 212" xml:space="preserve" fill='black'>
<path fill="#00aeef" d="M61.001,85.637c3.851,0,6.974,3.152,6.974,7.018c0,3.879-3.123,7.023-6.974,7.023  c-3.864,0-6.988-3.145-6.988-7.023C54.014,88.789,57.138,85.637,61.001,85.637z M50.561,96.473v-3.568  c0-2.877,1.097-5.576,3.07-7.613c1.987-2.016,4.603-3.125,7.371-3.131c2.782,0.006,5.385,1.115,7.358,3.131  c1.987,2.037,3.083,4.736,3.083,7.613v3.568c0,2.006,1.604,3.633,3.604,3.633c1.987,0,3.604-1.627,3.604-3.633v-3.568  c0-4.799-1.836-9.307-5.139-12.697c-2.37-2.41-5.316-4.092-8.591-4.842l-0.315-0.078V66.07L64.92,66  c3.275-0.764,6.234-2.434,8.578-4.844c3.315-3.389,5.152-7.91,5.152-12.703v-3.57c0-2-1.617-3.627-3.604-3.627  c-2,0-3.604,1.627-3.604,3.627v3.57c0,2.869-1.096,5.584-3.083,7.627c-1.987,2.006-4.577,3.115-7.345,3.119  c-2.782-0.004-5.398-1.113-7.385-3.119c-1.973-2.043-3.07-4.758-3.07-7.627v-3.57c0-2-1.617-3.627-3.604-3.627  s-3.603,1.627-3.603,3.627v3.57c-0.014,4.787,1.809,9.309,5.152,12.703c2.33,2.41,5.289,4.08,8.55,4.844l0.329,0.07v9.217  l-0.329,0.078c-3.247,0.75-6.207,2.432-8.55,4.842c-3.343,3.396-5.166,7.91-5.152,12.697v3.568c0,2.006,1.616,3.633,3.603,3.633  S50.561,98.479,50.561,96.473z M84.628,189.389c0-3.598-1.129-5.92-5.108-5.92c-0.733,0-1.326,0-1.806,0.057v11.697  c0.367,0.057,0.959,0.113,1.636,0.113C82.371,195.336,84.628,193.467,84.628,189.389z M122,0v211.895c0,0,0,0.07,0,0.105H0  c0-0.035,0-0.07,0-0.105C0,141.262,0,70.631,0,0H122z M99.951,195.846v-3.229l5.05-9.686c0.452-0.029,0.931-0.113,1.326-0.199  v-2.859h-7.364v2.859c0.451,0.113,0.93,0.17,1.439,0.227l-1.354,2.945c-0.338,0.736-0.791,1.842-1.073,2.662h-0.028  c-0.282-0.793-0.762-1.869-1.101-2.633l-1.354-2.975c0.48-0.057,0.931-0.113,1.383-0.227v-2.859h-7.619v2.859  c0.395,0.086,0.931,0.17,1.326,0.199l4.966,9.713v3.201c-0.847,0.057-1.721,0.199-2.455,0.34v2.805h9.313v-2.805  C101.672,196.045,100.797,195.902,99.951,195.846z M73.313,183.016v12.83c-0.847,0.057-1.721,0.199-2.455,0.34v2.805h2.455  c0.818,0,3.64,0.141,5.643,0.141c6.208,0,10.385-3.539,10.385-10.082c0-6.797-3.809-9.289-9.538-9.289  c-2.54,0-5.051,0.113-6.603,0.113h-2.342v2.803C71.591,182.818,72.466,182.959,73.313,183.016z M51.443,183.016v9.092  c0,3.824,1.496,7.25,7.563,7.25c5.135,0,8.042-2.719,8.042-7.9v-8.441c0.564-0.057,1.102-0.17,1.637-0.283v-2.859h-7.873v2.859  c0.621,0.143,1.298,0.227,1.891,0.283v8.609c0,2.945-0.959,4.107-3.442,4.107c-2.708,0-3.414-1.529-3.414-3.881v-8.836  c0.592-0.057,1.27-0.141,1.891-0.283v-2.859h-7.958v2.859C50.314,182.846,50.851,182.959,51.443,183.016z M42.414,195.846v-12.348  h2.257c0.057,0.707,0.169,1.416,0.311,2.18h3.301v-5.805H32.142v5.805h3.301c0.141-0.764,0.254-1.473,0.311-2.18h2.258v12.348  c-0.848,0.057-1.722,0.199-2.456,0.34v2.805h9.313v-2.805C44.135,196.045,43.26,195.902,42.414,195.846z M26.273,193.807  c0,1.189-0.818,1.926-2.343,1.926c-1.044,0-2.003-0.227-2.003-0.227c-0.056-1.049-0.254-2.152-0.254-2.152H18.23v5.467  c0,0,2.624,0.537,5.306,0.537c4.684,0,7.449-2.436,7.449-6.033c0-6.428-8.41-5.352-8.41-8.523c0-1.076,0.819-1.785,2.343-1.785  c0.705,0,1.298,0.113,1.298,0.113c0.056,1.049,0.254,2.068,0.254,2.068h3.358v-5.24c0,0-2.229-0.453-4.515-0.453  c-4.685,0-7.394,2.295-7.394,5.777C17.92,191.682,26.273,190.605,26.273,193.807z M1,167h120V1H1V167z M92.311,128.719  c0.344,0.826-0.041,1.766-0.863,2.115c-0.192,0.092-0.412,0.123-0.617,0.123c-0.658,0-1.233-0.393-1.494-0.99l-1.274-3.105h-7.111  l-1.261,3.104c-0.329,0.805-1.315,1.199-2.11,0.869c-0.821-0.35-1.219-1.303-0.877-2.115l6.29-15.258  c0.37-0.902,1.027-1.113,1.507-1.113c0.685,0,1.248,0.385,1.535,1.119L92.311,128.719z M86.747,123.639l-2.247-5.436l-2.219,5.436  H86.747z M77.252,114.027c0-0.91-0.739-1.654-1.644-1.654H64.687c-0.89,0-1.644,0.744-1.644,1.654s0.754,1.654,1.644,1.654h3.795  v13.586c0,0.914,0.741,1.668,1.658,1.668c0.452,0,0.863-0.18,1.165-0.496c0.329-0.316,0.48-0.74,0.48-1.172v-13.586h3.823  C76.513,115.682,77.252,114.938,77.252,114.027z M42.627,112.588c-0.795-0.451-1.795-0.186-2.261,0.607l-4.137,7.197l-4.138-7.197  c-0.466-0.797-1.466-1.059-2.248-0.607c-0.795,0.457-1.068,1.473-0.602,2.26l5.344,9.293v5.184c0,0.916,0.739,1.658,1.644,1.658  c0.917,0,1.658-0.742,1.658-1.658v-5.184l5.33-9.293C43.683,114.061,43.408,113.045,42.627,112.588z M61.837,121.824  c0,4.684-2.562,9.402-8.263,9.402h-0.027c-2.712,0-4.919-0.955-6.426-2.77c-1.37-1.652-2.096-3.955-2.096-6.693  c0.027-5.885,3.37-9.689,8.549-9.689C58.755,112.086,61.837,115.74,61.837,121.824z M58.426,121.824c0-4.197-1.63-6.33-4.836-6.346  c-4.481,0-5.139,3.949-5.167,6.299c-0.014,1.916,0.453,3.469,1.302,4.5c0.863,1.016,2.138,1.541,3.823,1.545h0.027  C57.151,127.822,58.426,124.721,58.426,121.824z"/>
</svg>
